# xmcd
#
# Track frame offsets:
#	150
#	20353
#	39343
#	59151
#	82185
#	94579
#	111503
#	128122
#	141551
#	158086
#	181541
#	197686
#	213386
#	249542
#	283439
#
# Disc length: 4048 seconds
#
# Revision: 0
# Processed by: cddbd v1.5.2PL0 Copyright (c) Steve Scherf et al.
# Submitted via: EasyCDDAExtractor 16.0.6.1
#
DISCID=e00fce0f
DTITLE=Doug Sahm - The Last Real Texas Blues Band: Live in Stockholm
DYEAR=2012
DGENRE=Pop-Folk
TTITLE0=Farmer John
TTITLE1=Talk to me
TTITLE2=Nitty Gritty
TTITLE3=Nuevo Laredo
TTITLE4=Dealer's Blues
TTITLE5=Bad Boy
TTITLE6=\n\n\n(Is Anybody Goin' To) San Antone
TTITLE7=\n\n\nPick Me Up on Your Way Down
TTITLE8=Adios Mexico
TTITLE9=\n\n\n(Hey Baby) Que Paso
TTITLE10=Wasted Days and Wasted Nights
TTITLE11=She's About a Mover
TTITLE12=Mendocino/Dynamite Woman
TTITLE13=Meet Me in Stockholm
TTITLE14=Treat Her Right 
EXTD=
EXTT0=
EXTT1=
EXTT2=
EXTT3=
EXTT4=
EXTT5=
EXTT6=
EXTT7=
EXTT8=
EXTT9=
EXTT10=
EXTT11=
EXTT12=
EXTT13=
EXTT14=
PLAYORDER=
